<svg xmlns="http://www.w3.org/2000/svg" width="20" height="22.857" viewBox="0 0 20 22.857"><defs><style>.a{fill:#7e8299;}</style></defs><path class="a" d="M1.429,20.714a2.143,2.143,0,0,0,2.143,2.143H16.429a2.143,2.143,0,0,0,2.143-2.143v-15H1.429ZM13.571,9.286a.714.714,0,1,1,1.429,0v10a.714.714,0,0,1-1.429,0Zm-4.286,0a.714.714,0,1,1,1.429,0v10a.714.714,0,0,1-1.429,0ZM5,9.286a.714.714,0,0,1,1.429,0v10a.714.714,0,0,1-1.429,0ZM19.286,1.429H13.929l-.42-.835A1.071,1.071,0,0,0,12.549,0h-5.1a1.059,1.059,0,0,0-.955.594l-.42.835H.714A.714.714,0,0,0,0,2.143V3.571a.714.714,0,0,0,.714.714H19.286A.714.714,0,0,0,20,3.571V2.143A.714.714,0,0,0,19.286,1.429Z" transform="translate(0 0)"/></svg>