<svg xmlns="http://www.w3.org/2000/svg" width="24" height="24" viewBox="0 0 24 24"><defs><style>.a{fill:none;}.b{fill:#7e8299;}</style></defs><path class="a" d="M0,0H24V24H0Z"/><path class="b" d="M15.9,5a.487.487,0,0,0-.41.23l-.07.15L10.24,17.03a1.97,1.97,0,0,0-.26.96,2.007,2.007,0,0,0,3.97.42l.01-.03L16.4,5.5A.5.5,0,0,0,15.9,5ZM1,9l2,2A12.662,12.662,0,0,1,13.53,7.38L14.72,4.7A15.522,15.522,0,0,0,1,9Zm20,2,2-2a15.367,15.367,0,0,0-5.59-3.57l-.53,2.82A12.617,12.617,0,0,1,21,11Zm-4,4,2-2a9.879,9.879,0,0,0-2.66-1.89l-.55,2.92A7.251,7.251,0,0,1,17,15ZM5,13l2,2a7.1,7.1,0,0,1,4.03-2l1.28-2.88A9.879,9.879,0,0,0,5,13Z"/></svg>